<?xml version="1.0" encoding="utf-8"?>

<!DOCTYPE svg PUBLIC "-//W3C//DTD SVG 1.1//EN" "http://www.w3.org/Graphics/SVG/1.1/DTD/svg11.dtd">
<svg version="1.1" id="Layer_1" xmlns="http://www.w3.org/2000/svg" xmlns:xlink="http://www.w3.org/1999/xlink" x="0px" y="0px"
	 viewBox="555.1411 -27.4251 808.8589 636.8502" enable-background="new 555.1411 -27.4251 808.8589 636.8502" xml:space="preserve"
	>
<g>
	<path fill="#FEFDFD" d="M733.26,362.91l-0.01-1.72l0.26-2.77c-2.25-0.16-4.5,0.01-6.72,0.27c1.25,12.71,3.74,25.28,4.8099,38.02
		c1.9-0.04,3.8-0.07,5.7101-0.1C737.6,385.26,734.27,374.18,733.26,362.91z"/>
	<path fill="#0D0B0C" d="M1326.99,211.96c-0.02-55.32,0.1-110.64-0.05-165.96c-0.0599-2.34,0.49-4.63,1.25-6.83
		c-0.08,103.59,0.01,207.19-0.0499,310.79c-0.02,3.26,0.36,6.68-0.9,9.79C1326.66,310.5,1327.2,261.22,1326.99,211.96z"/>
	<path fill="#F05A35" d="M1192.4399,86.43c22.4-0.06,44.8101-0.02,67.2201-0.03c0.1299,80.73,0.0499,161.47,0.0399,242.2
		c-22.45,0.01-44.89,0-67.33-0.01C1192.47,247.87,1192.3199,167.15,1192.4399,86.43z"/>
	<path fill="#F6B245" d="M1167.09,110.47c2.08-0.5,2.65,1.95,2.42,3.48c-0.0901,71.51,0.0299,143.03-0.0701,214.54
		c-22.63,0.21-45.27,0.15-67.9,0.03c-0.1699-72.69-0.0399-145.39-0.0699-218.08C1123.34,110.5,1145.22,110.43,1167.09,110.47z"/>
	<path fill="#D8D8D8" d="M1054.95,411.99c-6.16,3.5-14.38,4.61-20.65,0.75c-4.46-2.14-7.33-6.53-8.87-11.08
		c-1.14-5.77-0.0699-11.97,3.4301-16.76c2.2-4.22,7.29-5.22,11.48-6.41c5.41-1.42,11,0.54,15.37,3.72
		c3.09,4.05,7.34,8.19,6.51,13.78C1062.95,402.2,1059.4399,408.02,1054.95,411.99z"/>
	<path fill="#0295A5" d="M1077.37,149.39c0.03,59.67-0.1801,119.34,0.1,179.01c-6.8-0.77-13.63,0.21-20.45-0.21
		c-14.66-0.23-29.3301-0.05-44.0001-0.07c-1.45,0.21-2.49-0.69-3.32-1.73c0.8-0.71,1.55-1.48,2.25-2.31
		c1.63-1.85,3.92-2.87,5.98-4.15c9.6199-5.56,15.66-19.67,8.52-29.39c-3.7-5.68-10.5099-7.7-16.91-8.25
		c-0.09-44.34,0-88.68-0.04-133.02C1032.12,149.27,1054.75,148.99,1077.37,149.39z"/>
	<path fill="#F0E3C3" d="M1009.5,149.27c0.04,44.34-0.05,88.68,0.04,133.02c6.4,0.55,13.21,2.57,16.91,8.25
		c7.14,9.72,1.1,23.83-8.52,29.39c-6.67-11.18-13.96-21.97-20.4-33.29c3.17-2.72,7.32-3.45,11.31-4.05
		c0.92-18.15,0.14-36.36,0.39-54.54c-0.11-26.26,0.19-52.52-0.12-78.78H1009.5z"/>
	<path fill="#B2B4B3" d="M995.56,289.25c0.97,0,1.75,0.78,1.75,1.75s-0.78,1.75-1.75,1.75c-0.96,0-1.75-0.78-1.75-1.75
		S994.6,289.25,995.56,289.25z"/>
	<path fill="#F05A35" d="M985.5699,187.47c0.01,33.74,0.08,67.49-0.04,101.23c-8.65,2.42-17.29,4.98-25.82,7.81
		c-13.86,3.63-27.77,7.55-42.12,8.59c-0.12-39.2-0.02-78.4-0.05-117.6C940.21,187.42,962.89,187.48,985.5699,187.47z"/>
	<path fill="#35302A" d="M1009.7,326.39c-3.36,0.67-6.58,1.79-9.7599,3.01c-5.38,2.05-11.14,3.02-16.33,5.6
		c-3.36,0.93-6.69,1.93-9.96,3.13c1.67,0.14,3.34,0.26,5.03,0.37c-3.4,2.72-7.42-0.73-11.04,0.98c-13.42,4.6-27.48,6.74-41.45,8.89
		c-14.06,1.56-28.3701,0.19-42.02-3.43c-5.78-1.49-11.19-4.16-17.07-5.22c-0.11,4.23-0.32,8.47-1.12,12.64
		c-0.07-3.79-0.45-7.61,0.25-11.36c2.22-11.34,0.9-23.05,3.33-34.35c1.05-4.86-2.03-10.36,1.39-14.65
		c7.28,5.26,15.69,8.8,24.41,10.88c7.26,1.63,14.78,2.61,22.23,2.22c14.35-1.04,28.26-4.96,42.12-8.59
		c8.53-2.83,17.17-5.39,25.82-7.81c0.4-0.11,1.21-0.32,1.61-0.42c0.69-0.3,1.39-0.6,2.1-0.9c0.17,0.3,0.51,0.9,0.68,1.2
		c0.55,0.99,1.14,1.98,1.75,2.96c0.5,0.87,1.05,1.74,1.6,2.6c6.4,9.88,12.17,20.14,18.68,29.94
		C1011.25,324.91,1010.5,325.68,1009.7,326.39z"/>
	<path fill="#F0E3C3" d="M866.17,126.91c-0.02-0.29-0.05-0.59-0.08-0.88C866.13,126.32,866.15,126.62,866.17,126.91z"/>
	<path fill="#E5E5E5" d="M1034.2999,412.74c6.27,3.86,14.49,2.75,20.65-0.75c4.49-3.97,8-9.79,7.27-16
		c0.83-5.59-3.42-9.73-6.51-13.78c-4.37-3.18-9.96-5.14-15.37-3.72c-4.1899,1.19-9.28,2.19-11.48,6.41
		c-3.5,4.79-4.5701,10.99-3.4301,16.76C1026.97,406.21,1029.84,410.6,1034.2999,412.74z M1161.0699,542.73
		c-78.36,0.01-156.71,0.09-235.06-0.04c-0.42-6.9,0-13.82-0.23-20.72c0.06-2.47-0.3-5.1,0.77-7.41c1.62-1.01,3.6-0.91,5.45-0.98
		c10.88,0.12,21.7599,0.04,32.64,0.12c2.65-19.34,5.02-38.72,7.95-58.02c0.61-6.93,2.35-13.74,2.45-20.72
		c-25-0.01-50.02,0.21-75.03-0.07c-11.64,0.47-23.3-0.44-34.93,0.37c-1.97,0.14-3.92-0.23-5.84-0.51c1.39-25,4.24-49.89,6.06-74.86
		c154.63-0.08,309.2499,0.1,463.8799-0.09c-0.11,19.73,0.03,39.46-0.08,59.19c0.26,5.73-2.89,11.16-7.5601,14.32
		c-2.59,1.51-5.7,1.58-8.6,1.78c-67.38-0.29-134.7899-0.04-202.1699-0.07c0.09,1.65,0.1899,3.3,0.37,4.95
		c3.64,24.36,7.9299,48.65,11.08,73.09c4.87,0.94,9.83,0.54,14.76,0.56c7.84-0.03,15.6801,0.08,23.53-0.08
		c1.6699,3.97,0.77,8.3,0.83,12.45C1161.08,531.57,1162.11,537.19,1161.0699,542.73z"/>
	<path fill="#231F20" d="M1326.9399,46c0.15,55.32,0.03,110.64,0.05,165.96c0.21,49.26-0.33,98.54,0.25,147.79
		c1.26-3.11,0.88-6.53,0.9-9.79c0.0599-103.6-0.03-207.2,0.0499-310.79c0.37,1.57,0.5601,3.19,0.5901,4.81
		c-0.05,95.67,0,191.34-0.02,287.01c0.2,9.6-0.4301,19.23,0.4199,28.81c-154.63,0.19-309.2499,0.01-463.8799,0.09
		c0.14-2.52,0.34-5.03,0.68-7.53c0.8-4.17,1.01-8.41,1.12-12.64c5.88,1.06,11.29,3.73,17.07,5.22c13.65,3.62,27.96,4.99,42.02,3.43
		c13.97-2.15,28.03-4.29,41.45-8.89c3.62-1.71,7.64,1.74,11.04-0.98c103.72-0.33,207.45,0.02,311.18-0.17
		c7.46,0,14.04-6.85,13.79-14.31c0.08-84.68-0.01-169.36,0.0399-254.04c-0.0699-4.55,0.52-9.5-2.08-13.53
		c-1.35-2.66-3.91-4.26-6.34-5.8c-2.38-0.66-4.79-1.3-7.25-1.25c-141.6901,0.08-283.39-0.05-425.08,0.07
		c-3.54-4.88-7.59-9.49-12.55-12.96c-3.53-2.59-7.65-4.16-11.56-6.05c5.03-0.71,10.11-0.66,15.18-0.56
		c145,0.03,290.0001-0.02,435.0001,0.02c9.36-0.27,18.76,0.56,28.09-0.43c5.16,0.93,9.16,4.94,11.09,9.68
		C1327.4299,41.37,1326.88,43.66,1326.9399,46z"/>
	<path fill="#F6B245" d="M854.65,263.62c11.32-12.06,14.13-29.17,14.99-45.07c8.62-0.49,17.25-0.13,25.87-0.21
		c-0.19,28.18,0.1201,56.36-0.15,84.54c-8.72-2.08-17.13-5.62-24.41-10.88c-4.6-3.33-7.35-8.76-12.54-11.32
		c-6.59-3.76-14.23-4.7-21.69-4.42C843.05,272.59,849.8199,269.31,854.65,263.62z"/>
	<path fill="#6E5237" d="M804.5099,172.9c1.4901,4.59,0.44,10.18-3.65,13.08c-3.09,2.64-7.39,1.62-11.08,1.63
		c-2.56-1.56-5.23-3.35-6.07-6.41c-2.87-6.23,2.01-13.93,8.6-14.85c0.23,2.58-0.78,5.85,1.67,7.64c1.75,2.05,4.6,1.28,6.96,1.34
		C802.11,174.5,803.3,173.69,804.5099,172.9z"/>
	<path fill="#231F20" d="M785.63,553.59c-2.07-0.02-4.1201-0.01-6.17-0.16c5.85-0.39,11.66,0.67,17.52,0.53
		c7.63-0.18,15.29,0.22,22.91-0.47c0.76,1.58,1.53,3.16,2.41,4.7c2.21,0.26,4.43,0.38,6.66,0.62c12.79,2.65,25.75,4.56,38.37,8.02
		c2.95,4.5,2.22,10.07,1.99,15.17h-82.25C784.31,572.81,786.45,563.03,785.63,553.59z"/>
	<path fill="#FDFEFB" d="M800.86,185.98c4.09-2.9,5.14-8.49,3.65-13.08c-1.21,0.79-2.4,1.6-3.5699,2.43
		c-2.36-0.06-5.21,0.71-6.96-1.34c-2.45-1.79-1.44-5.06-1.67-7.64c-6.59,0.92-11.47,8.62-8.6,14.85c0.84,3.06,3.51,4.85,6.07,6.41
		C793.47,187.6,797.77,188.62,800.86,185.98z M775.93,170.94c2.44-6.45,8.3-11.93,15.4-12.47c6.7-0.89,13.91,1.64,18.02,7.14
		c2.99,4.1,4.89,9.41,3.87,14.51c-1.05,6.84-5.99,13.12-12.56,15.42c-4.73,1.35-10.02,1.37-14.53-0.75
		C777.09,191.36,772.21,179.85,775.93,170.94z"/>
	<path fill="#FDFEFE" d="M798.89,289.67c-8.03,15.09-15.68,30.39-23.82,45.41c-1.78-14.74-3.95-29.45-5.65-44.2l1.02-0.39
		c1.54-0.56,3.12-1.05,4.66-1.64C783.0099,289.03,791.16,287.46,798.89,289.67z"/>
	<path fill="#403933" d="M775.93,456.92c-4.34,0.09-8.66-0.35-12.91-1.17c-0.42-18.59-0.04-37.19-0.2-55.78
		c-0.14-11.86,0.52-23.75-0.34-35.59c0.29-0.14,0.58-0.27,0.87-0.4c4.36-1.92,9.14-2.8,13.32-5.17c4.86-2.67,10.8-3.98,14.55-8.29
		c9.76-16.53,17.44-34.14,25.96-51.3c3.25-6.59,5.5-14.24,11.54-18.91c-1.33-0.29-2.66-0.59-3.97-0.84
		c4.04-0.86,7.97-2.17,11.97-3.21c7.46-0.28,15.1,0.66,21.69,4.42c5.19,2.56,7.94,7.99,12.54,11.32c-3.42,4.29-0.34,9.79-1.39,14.65
		c-2.43,11.3-1.11,23.01-3.33,34.35c-0.7,3.75-0.32,7.57-0.25,11.36c-0.34,2.5-0.54,5.01-0.68,7.53
		c-1.82,24.97-4.67,49.86-6.06,74.86l-0.6-0.07c-0.41,7.95-0.39,16.74-5.71,23.23c-0.82-0.86-1.67-1.86-2.96-1.45
		c-4.62,0.72-9.29,0.42-13.93,0.34C816,457.03,795.96,456.76,775.93,456.92z"/>
	<path fill="#DEDFDE" d="M798.89,289.67c-7.73-2.21-15.88-0.64-23.79-0.82c2.96-1.69,5.44-4.06,7.7-6.59
		c0.18-0.19,0.54-0.58,0.73-0.77c6.39,0.43,12.81,0.53,19.22,0.25C801.52,284.41,800.27,287.08,798.89,289.67z"/>
	<path fill="#55331C" d="M779.88,143.75c-3.96,1.14-7.26,4.37-11.58,3.98c-0.99-1.42-2.79-2.65-2.67-4.56
		c0.5-2.25,2.45-3.82,4.47-4.74c14.99-7.34,33.87-7.43,48.32,1.29c2.45,1.43,2.63,5.42,0.25,7.03c-1.61,1.65-4.15,0.91-5.85-0.16
		c-9.2599-5.07-20.55-6.62-30.67-3.36C781.58,143.36,780.45,143.62,779.88,143.75z"/>
	<path fill="#35302A" d="M776.67,358.81c-4.18,2.37-8.96,3.25-13.32,5.17l-3.16-0.38c5.21-9.37,9.95-19,14.8799-28.52
		c8.14-15.02,15.79-30.32,23.82-45.41c1.38-2.59,2.63-5.26,3.86-7.93c7.39-0.01,14.73-0.99,22-2.27c1.31,0.25,2.64,0.55,3.97,0.84
		c-6.04,4.67-8.29,12.32-11.54,18.91c-8.52,17.16-16.2,34.77-25.96,51.3C787.47,354.83,781.53,356.14,776.67,358.81z"/>
	<path fill="#0295A5" d="M775.0699,335.08c-4.93,9.52-9.67,19.15-14.8799,28.52c-5.09-9.29-9.26-19.05-14.04-28.5
		c3.06-14.42,5.36-28.99,8.34-43.43c-0.92-0.36-1.84-0.7-2.76-1.04c4.73-3.88,11.27-2.09,16.86-2.33c0.46,0.55,1.39,1.64,1.85,2.19
		l-1.02,0.39C771.12,305.63,773.29,320.34,775.0699,335.08z"/>
	<path fill="#D14F2D" d="M783.46,250.19c-7.9,2.48-16.25,3.46-24.52,3.26c-12.83,0.38-26.08-1.87-37.28-8.4
		c-0.13-0.53-0.39-1.6-0.52-2.14c6.72-4.1,13.82-8.07,21.8-8.91c8.6-0.83,17.31-2.07,25.94-0.79c9.47,1.43,19.0099,4.28,26.61,10.34
		C792.38,247.08,787.72,248.57,783.46,250.19z"/>
	<path fill="#05828F" d="M738.67,281.67c11.12-0.13,22.24-0.02,33.36-0.09c3.59-0.03,7.24-0.2,10.77,0.68
		c-2.26,2.53-4.74,4.9-7.7,6.59c-1.54,0.59-3.12,1.08-4.66,1.64c-0.46-0.55-1.39-1.64-1.85-2.19c-5.59,0.24-12.13-1.55-16.86,2.33
		c-2.11-0.71-4.21-1.4-6.3-2.14C742.74,286.71,740.09,284.65,738.67,281.67z"/>
	<path fill="#FEFEFE" d="M723.99,289.53c7-1.79,14.3-0.52,21.44-1.04c2.09,0.74,4.19,1.43,6.3,2.14c0.92,0.34,1.84,0.68,2.76,1.04
		c-2.98,14.44-5.28,29.01-8.34,43.43C738.73,319.92,731.41,304.7,723.99,289.53z"/>
	<path fill="#F0E3C3" d="M733.2599,362.91l-0.0099-1.72l0.2599-2.77c3.54,0.25,7.09,0.46,10.64,0.73c4.96,1.66,9.33,5.12,11.92,9.69
		c2.61,5.11,2.21,11.46-0.34,16.52c-3.94,6.52-11.09,10.32-18.45,11.51l0.03-0.26C737.6,385.26,734.27,374.18,733.2599,362.91z"/>
	<path fill="#9B9890" d="M733.5099,358.42c-2.25-0.16-4.5,0.01-6.72,0.27c1.25,12.71,3.74,25.28,4.81,38.02
		c1.9-0.04,3.8-0.07,5.71-0.1l-0.03,0.26c-1.84,0.37-3.69,0.66-5.53,0.98c-0.22-0.36-0.66-1.07-0.88-1.42
		c-1.88-12.2-2.88-24.53-5.21-36.66c1.9-4.1,7.16-2.2,10.69-2.43c2.68,0.13,5.3,0.82,7.8,1.81
		C740.6,358.88,737.05,358.67,733.5099,358.42z"/>
	<path fill="#DFDFDF" d="M745.43,288.49c-7.14,0.52-14.44-0.75-21.44,1.04c-1.22-2.64-2.45-5.26-3.71-7.86
		c6.13,0.23,12.26,0.09,18.39,0C740.09,284.65,742.74,286.71,745.43,288.49z"/>
	<path fill="#EF5A34" d="M764.99,223.2c11.59,0.14,23.17-0.61,34.74,0.23c3.32,1.11,5.64,4.98,4.63,8.44
		c-1.28,4.84-4.75,8.73-8.33,12.06l-0.54-0.38c-7.6-6.06-17.14-8.91-26.61-10.34c-8.63-1.28-17.34-0.04-25.94,0.79
		c-7.98,0.84-15.08,4.81-21.8,8.91c0.13,0.54,0.39,1.61,0.52,2.14c-4.78-3.5-9.47-7.7-11.65-13.35c-1.2599-2.9,0.06-6.59,2.84-8.06
		c5-0.94,10.13-0.87,15.19-0.47C740.35,223.24,752.67,223.17,764.99,223.2z"/>
	<path fill="#6D5137" d="M730.48,172.9c1.67,4.58,0.39,10.1-3.58,13.07c-3.37,2.75-7.96,1.68-11.92,1.47
		c-3.65-2.31-5.81-6.12-6.29-10.37c0.66-5.11,4.21-9.95,9.5699-10.7c0.05,2.07,0.1201,4.14,0.2,6.21
		C721.37,176.63,727.12,176.11,730.48,172.9z"/>
	<path fill="#FDFDFC" d="M739.02,179.93c-1.34,7.23-6.67,13.84-13.92,15.68c-9.14,2.87-19.98-2.76-22.97-11.86
		c-4.92-11.25,4.6-24.82,16.42-26c6.37-0.39,12.69,2.91,16.71,7.76C737.7,169.84,740.49,174.8,739.02,179.93z M726.9,185.97
		c3.97-2.97,5.25-8.49,3.58-13.07c-3.36,3.21-9.11,3.73-12.02-0.32c-0.08-2.07-0.15-4.14-0.2-6.21c-5.36,0.75-8.91,5.59-9.5699,10.7
		c0.48,4.25,2.64,8.06,6.29,10.37C718.94,187.65,723.53,188.72,726.9,185.97z"/>
	<path fill="#55331C" d="M742.1,147.36c-4.43-2.35-9.11-4.55-14.14-5.11c-7.25-0.22-14.77-0.76-21.61,2.13
		c-3.45,0.72-6.34,4.1-10.03,3.08c-2.86-1.55-3.16-4.93-1.47-7.47c14.98-8.38,34.32-9.57,49.61-1.33c1.86,1.09,4.24,2.76,3.99,5.2
		C747.72,146.45,744.85,148.79,742.1,147.36z"/>
	<path fill="#F0E3C3" d="M775.93,170.94c-3.72,8.91,1.16,20.42,10.2,23.85c4.5099,2.12,9.8,2.1,14.53,0.75
		c6.57-2.3,11.51-8.58,12.56-15.42c1.02-5.1-0.88-10.41-3.87-14.51c-4.11-5.5-11.32-8.03-18.02-7.14
		C784.23,159.01,778.37,164.49,775.93,170.94z M718.55,157.75c-11.82,1.18-21.34,14.75-16.42,26c2.99,9.1,13.83,14.73,22.97,11.86
		c7.25-1.84,12.58-8.45,13.92-15.68c1.47-5.13-1.32-10.09-3.76-14.42C731.24,160.66,724.92,157.36,718.55,157.75z M728.04,223.17
		c-5.06-0.4-10.19-0.47-15.19,0.47c-2.78,1.47-4.1,5.16-2.84,8.06c2.1801,5.65,6.8701,9.85,11.65,13.35
		c11.2,6.53,24.45,8.78,37.28,8.4c8.27,0.2,16.62-0.78,24.52-3.26c4.26-1.62,8.92-3.11,12.03-6.64l0.54,0.38
		c3.58-3.33,7.05-7.22,8.33-12.06c1.01-3.46-1.31-7.33-4.63-8.44c-11.57-0.84-23.15-0.09-34.74-0.23
		C752.67,223.17,740.35,223.24,728.04,223.17z M727.96,142.25c5.03,0.56,9.71,2.76,14.14,5.11c2.75,1.43,5.62-0.91,6.35-3.5
		c0.25-2.44-2.13-4.11-3.99-5.2c-15.29-8.24-34.63-7.05-49.61,1.33c-1.69,2.54-1.39,5.92,1.47,7.47c3.69,1.02,6.58-2.36,10.03-3.08
		C713.19,141.49,720.71,142.03,727.96,142.25z M768.3,147.73c4.32,0.39,7.62-2.84,11.58-3.98c0.5699-0.13,1.7-0.39,2.27-0.52
		c10.12-3.26,21.41-1.71,30.67,3.36c1.7,1.07,4.2401,1.81,5.85,0.16c2.38-1.61,2.2-5.6-0.25-7.03c-14.45-8.72-33.33-8.63-48.32-1.29
		c-2.02,0.92-3.97,2.49-4.47,4.74C765.5099,145.08,767.31,146.31,768.3,147.73z M772.03,281.58c-11.12,0.07-22.24-0.04-33.36,0.09
		c-6.13,0.09-12.26,0.23-18.39,0c-2.59-0.07-5.18-0.07-7.76,0.04c-12.04-0.16-24.55-0.31-35.81-5.1l1.2,0.1
		c-2.17-0.78-4.37-1.49-6.5-2.33c-4.53-1.66-7.86-5.33-11-8.81c-9.7-12.18-13.4-27.72-15.68-42.81c-0.41-4.56-0.15-9.15-0.78-13.69
		c-0.89-6.71,0-13.51-0.99-20.21c0.8-0.77,1.61-1.53,2.44-2.29c2.08-8.03,2.8-16.36,3.26-24.62c1.63-14.88,2.11-29.94,5.38-44.6
		c1.51-3.22,2.24-6.71,3.61-9.98c4.57-8.53,13.86-13.53,23.34-14.31c10.02-0.65,20.16-0.14,30.04,1.74
		c17.6,2.21,35.1,6.32,52.94,5.45c11.29,0.36,22.34-2.04,33.42-3.77c14.18-1.25,28.3-5.23,42.61-3.39
		c6.02,0.67,12.23,2.83,16.11,7.72c4.39,4.72,4.71,11.43,6.93,17.2c1.62,4.43,0.99,9.24,1.83,13.82c1.02-1.47,1.38-3.18,1.3-4.92
		c0.71,8.35-0.09,16.77,1,25.1c0.46,11.61-0.13,23.28,1.43,34.83c0.23,1.98,1.07,3.82,2.16,5.48c-1.08,8.16-1.29,16.42-0.77,24.63
		c8.49,0.33,16.99-0.19,25.48,0.26c0.01,0.28,0.03,0.85,0.04,1.13c-8.62,0.08-17.25-0.28-25.87,0.21
		c-0.86,15.9-3.67,33.01-14.99,45.07c-4.83,5.69-11.6,8.97-17.93,12.64c-4,1.04-7.93,2.35-11.97,3.21c-7.27,1.28-14.61,2.26-22,2.27
		c-6.41,0.28-12.83,0.18-19.22-0.25c-0.19,0.19-0.55,0.58-0.73,0.77C779.27,281.38,775.62,281.55,772.03,281.58z"/>
	<path fill="#35302A" d="M763.02,455.75c4.25,0.82,8.57,1.26,12.91,1.17c20.03-0.16,40.07,0.11,60.11-0.12
		c4.64,0.08,9.31,0.38,13.93-0.34c1.29-0.41,2.14,0.59,2.96,1.45c-6.12,7.15-14.62,11.76-23.33,14.99
		c-0.2,25.07,0.02,50.14-0.11,75.21c0.13,2.04-1.11,3.74-2.01,5.45c-1.69,0.01-3.39,0-5.05,0.01c-0.06,1.54-0.1,3.07-0.13,4.62
		c-0.88-1.54-1.65-3.12-2.41-4.7c-7.62,0.69-15.28,0.29-22.91,0.47c-5.86,0.14-11.67-0.92-17.52-0.53
		c-2.53-2.03-3.19-5.36-3.09-8.44c-0.02-20.5,0.04-41.01-0.03-61.51c-9.8,0.3-19.68,1.96-29.44,0.37c-2.44-0.16-4.88-0.21-7.32-0.26
		c0.02,20.13,0.02,40.25,0.01,60.38c-0.24,2.77,0.17,5.8101-1.22,8.33c-1.29,1.98-3.94,1.05-5.9,1.34
		c-11.78,0.24-23.59,0.72-35.35-0.12c-0.26,1.53-0.49,3.08-0.71,4.64c-0.19-1.55-0.39-3.08-0.66-4.6c-2.54-0.33-6.42,1.12-7.84-1.81
		c-1.23-2.01-1.34-4.44-1.34-6.73c0.0601-23.8-0.0099-47.6,0.0601-71.4c-8.96-3.96-18.21-8.48-24.25-16.49
		c0.18-0.42,0.55-1.25,0.73-1.67c2.59,0.51,5.19,1.31,7.87,1.05c10-0.9,20.05-0.13,30.08-0.36c18.95-0.26,37.92,0.39,56.86-0.33
		c0.2-20.28-0.05-40.56,0.06-60.83c0.15-3.37-0.7-6.65-2.25-9.63c2.55-5.06,2.95-11.41,0.34-16.52c-2.59-4.57-6.96-8.03-11.92-9.69
		c-2.5-0.99-5.12-1.68-7.8-1.81c-2.07-4.06-6.16-6.31-8.96-9.74c-7.78-11.54-11.28-25.22-17.47-37.57
		c-3.95-8.45-7.25-17.19-11.54-25.47c-1.53-0.38-3.0601-0.77-4.57-1.16c6.17-1.46,12.63,0.25,18.71-1.69
		c2.58-0.11,5.17-0.11,7.76-0.04c1.26,2.6,2.49,5.22,3.71,7.86c7.42,15.17,14.74,30.39,22.16,45.57c4.78,9.45,8.95,19.21,14.04,28.5
		l3.16,0.38c-0.29,0.13-0.58,0.26-0.87,0.4c0.86,11.84,0.2,23.73,0.34,35.59C762.98,418.56,762.6,437.16,763.02,455.75z"/>
	<path fill="#403933" d="M680.96,399.95c17.29,0.24,34.58,0.13,51.86-0.36c-0.27-0.44-0.8-1.31-1.0699-1.74
		c1.84-0.32,3.69-0.61,5.53-0.98c7.36-1.19,14.51-4.99,18.45-11.51c1.55,2.98,2.4,6.26,2.25,9.63c-0.11,20.27,0.14,40.55-0.06,60.83
		c-18.94,0.72-37.91,0.07-56.86,0.33c-10.03,0.23-20.08-0.54-30.08,0.36c-2.68,0.26-5.28-0.54-7.87-1.05
		c-0.18,0.42-0.55,1.25-0.73,1.67c-6.05-8.8-5.32-20.1-6.03-30.28l-0.68-0.75c-0.03-3.47-0.16-6.96-0.96-10.35
		c-0.02-6.25,1.03-12.41,1.66-18.6C664.59,397.89,672.64,400.32,680.96,399.95z"/>
	<path fill="#DCCFB3" d="M797.39,96.48c-11.08,1.73-22.13,4.13-33.42,3.77c-17.84,0.87-35.34-3.24-52.94-5.45
		c-9.88-1.88-20.02-2.39-30.04-1.74c-9.48,0.78-18.77,5.78-23.34,14.31c-1.37,3.27-2.1,6.76-3.61,9.98
		c1.27-7.38,3.34-14.76,7.06-21.3c3.23-5.93,9.58-9.49,15.98-10.99c7.2-1.34,14.6-2.2,21.87-0.89c26.14,1.99,52.08,10.27,78.44,6.42
		c15.63-1.43,30.98-5.02,46.63-6.38c8.34-1.22,17.02-1.06,25.1,1.59c5.41,1.69,9.86,6.07,11.79,11.38
		c3.69,9.17,4.11,19.15,5.18,28.85c0.03,0.29,0.06,0.59,0.08,0.88c0.08,1.74-0.28,3.45-1.3,4.92c-0.84-4.58-0.21-9.39-1.83-13.82
		c-2.22-5.77-2.54-12.48-6.93-17.2c-3.88-4.89-10.09-7.05-16.11-7.72C825.69,91.25,811.5699,95.23,797.39,96.48z"/>
	<path fill="#35302A" d="M647.84,280.84c2.99,0.03,5.98,0.22,8.98,0.37c-2.59,2.24-5.18,4.5-7.99,6.46
		c-2.66,8.87-2.01,18.2-1.69,27.33c0.16,4.57,2.32,9.68-0.55,13.82c-4.28,3.58-8.98,6.98-11.82,11.91c-0.43,1-0.83,2.46,0.29,3.19
		c4.36,3.16,9.32,5.7,14.65,6.73c0.26,0.05,0.79,0.16,1.06,0.21c0.27-1.64,0.56-3.27,0.86-4.9c0.15,2.02,0.3,4.04,0.46,6.07
		c9.9,2.01,19.9,3.64,29.95,4.72c11.65,0.64,23.33,0.31,35,0.32c2.28-0.02,4.51,0.53,6.71,1.12c0.3-0.18,0.89-0.52,1.19-0.69
		c0.24,0.75,0.48,1.51,0.72,2.27c2.33,12.13,3.33,24.46,5.21,36.66c0.22,0.35,0.66,1.06,0.88,1.42c0.27,0.43,0.8,1.3,1.0699,1.74
		c-17.28,0.49-34.5699,0.6-51.86,0.36c-8.32,0.37-16.37-2.06-24.59-2.8c-0.63,6.19-1.68,12.35-1.66,18.6
		c-0.54-6.28-0.38-12.64-1.27-18.93c-3.14-0.59-6.27-1.25-9.3701-2c-14.95-3.78-30.0699-9.7-41.12-20.83
		c-9.71-9.66-14.85-24.03-12.37-37.6c1.42-10.55,6.85-20.12,13.51-28.25C615.53,294.99,630.9,285.12,647.84,280.84z"/>
	<path fill="#231F20" d="M650.48,567.53c2.22-1.44,4.94-1.79,7.46-2.5c12.7599-2.6,25.5099-5.5601,38.47-6.8701
		c0.22-1.56,0.45-3.11,0.71-4.64c11.76,0.84,23.57,0.36,35.35,0.12c-0.07,6.78-0.04,13.57-0.03,20.35
		c0.05,2.72-0.3701,5.45-1.32,8.01h-82.4C648.44,577.16,647.9,571.89,650.48,567.53z"/>
	<path fill="#403933" d="M656.8199,281.21c-3-0.15-5.99-0.34-8.98-0.37c5.62-1.75,11.67-1.14,17.21-3.2
		c3.74-1.32,7.75-1.48,11.66-1.03c11.26,4.79,23.77,4.94,35.81,5.1c-6.08,1.94-12.54,0.23-18.71,1.69
		c1.5099,0.39,3.04,0.78,4.57,1.16c4.29,8.28,7.59,17.02,11.54,25.47c6.19,12.35,9.69,26.03,17.47,37.57
		c2.8,3.43,6.89,5.68,8.96,9.74c-3.53,0.23-8.79-1.67-10.69,2.43c-0.24-0.76-0.48-1.52-0.72-2.27c-0.3,0.17-0.89,0.51-1.19,0.69
		c-2.2-0.59-4.4301-1.14-6.71-1.12c-11.67-0.01-23.35,0.32-35-0.32c-10.05-1.08-20.05-2.71-29.95-4.72
		c-0.16-2.03-0.31-4.05-0.46-6.07c-0.3,1.63-0.59,3.26-0.86,4.9c-0.27-0.05-0.8-0.16-1.06-0.21c-0.25-3.89-1.1-7.72-1.15-11.61
		c-0.11-3.66,0.15-7.41-1.14-10.91l-0.83,0.69c2.87-4.14,0.71-9.25,0.55-13.82c-0.32-9.13-0.97-18.46,1.69-27.33
		C651.64,285.71,654.23,283.45,656.8199,281.21z"/>
	<path fill="#FFFFFF" d="M648.56,339.04c0.05,3.89,0.9,7.72,1.15,11.61c-5.33-1.03-10.29-3.57-14.65-6.73
		c-1.12-0.73-0.72-2.19-0.29-3.19c2.84-4.93,7.54-8.33,11.82-11.91l0.83-0.69C648.71,331.63,648.45,335.38,648.56,339.04z"/>
	<path fill="#54331D" d="M777.39,90.59c-26.36,3.85-52.3-4.43-78.44-6.42c-7.27-1.31-14.67-0.45-21.87,0.89
		c-6.4,1.5-12.75,5.06-15.98,10.99c-3.72,6.54-5.79,13.92-7.06,21.3c-3.27,14.66-3.75,29.72-5.38,44.6
		c-0.46,8.26-1.18,16.59-3.26,24.62c-0.83,0.76-1.64,1.52-2.44,2.29c-3.48-2.98-4.48-7.61-5.57-11.85
		c-3.41-14.45-4.8-29.28-5.72-44.06c-0.56-16.01-1.11-32.17,1.69-48.01c1.86-14.9,1-29.93,1.17-44.91
		c-0.16-9.47,0.56-19.03,3.23-28.15c1.79-4.74,4.5-9.38,9.1-11.88h1.51c5.84,12.59,18.38,20.89,31.62,24
		c8.32,2.51,17.08,1.81,25.64,1.71c-3.08-3.81-6.27-7.67-7.9901-12.33c-1.85-4.22-1.27-8.92-1.04-13.38h1.7
		c17.21,9.04,36.67,12.18,55.66,15.16c6.41,0.66,12.69,2.32,19.14,2.6l0.76,0.51c16.63,2.02,33.1,5.26,49.52,8.57
		c3.17,0.66,6.28,1.81,9.56,1.81c160.03,0.01,320.06,0,480.09,0.01c1.38,0.02,2.7699,0.34,4.0699,0.83
		c-9.33,0.99-18.73,0.16-28.09,0.43c-145-0.04-290.0001,0.01-435.0001-0.02c-5.0699-0.1-10.15-0.15-15.18,0.56
		c3.91,1.89,8.03,3.46,11.56,6.05c4.96,3.47,9.01,8.08,12.55,12.96c13.03,19.59,16.84,43.52,18.6299,66.52
		c0.22,10.66,0.22,21.33,0,31.99c-1.2,13.46-2.18,27.11-6.34,40.07c-0.59,1.85-1.74,3.43-2.97,4.9l-1.5-0.63
		c-1.09-1.66-1.93-3.5-2.16-5.48c-1.56-11.55-0.97-23.22-1.43-34.83c-1.09-8.33-0.29-16.75-1-25.1c-0.02-0.29-0.04-0.59-0.08-0.88
		c-1.07-9.7-1.49-19.68-5.18-28.85c-1.93-5.31-6.38-9.69-11.79-11.38c-8.08-2.65-16.76-2.81-25.1-1.59
		C808.37,85.57,793.02,89.16,777.39,90.59z"/>
	<path fill="none" stroke="#54331D" stroke-width="0.3" d="M642.96,188.86c-3.48-2.98-4.48-7.61-5.57-11.85
		c-3.41-14.45-4.8-29.28-5.72-44.06c-0.56-16.01-1.11-32.17,1.69-48.01c1.86-14.9,1-29.93,1.17-44.91
		c-0.16-9.47,0.56-19.03,3.23-28.15c1.79-4.74,4.5-9.38,9.1-11.88h1.51c5.84,12.59,18.38,20.89,31.62,24
		c8.32,2.51,17.08,1.81,25.64,1.71c-3.08-3.81-6.27-7.67-7.9901-12.33c-1.85-4.22-1.27-8.92-1.04-13.38h1.7
		c17.21,9.04,36.67,12.18,55.66,15.16c6.41,0.66,12.69,2.32,19.14,2.6l0.76,0.51c16.63,2.02,33.1,5.26,49.52,8.57
		c3.17,0.66,6.28,1.81,9.56,1.81c160.03,0.01,320.06,0,480.09,0.01c1.38,0.02,2.7699,0.34,4.0699,0.83"/>
	<path fill="none" stroke="#231F20" stroke-width="0.3" d="M1328.1899,39.17c0.37,1.57,0.5601,3.19,0.5901,4.81
		c-0.05,95.67,0,191.34-0.02,287.01c0.2,9.6-0.4301,19.23,0.4199,28.81"/>
	<path fill="none" stroke="#231F20" stroke-width="0.3" d="M862.94,49.47c-3.54-4.88-7.59-9.49-12.55-12.96
		c-3.53-2.59-7.65-4.16-11.56-6.05c5.03-0.71,10.11-0.66,15.18-0.56c145,0.03,290.0001-0.02,435.0001,0.02
		c9.36-0.27,18.76,0.56,28.09-0.43c5.16,0.93,9.16,4.94,11.09,9.68"/>
	<path fill="none" stroke="#0D0B0C" stroke-width="0.3" d="M1326.9399,46c-0.0599-2.34,0.49-4.63,1.25-6.83
		c-0.08,103.59,0.01,207.19-0.0499,310.79c-0.02,3.26,0.36,6.68-0.9,9.79c-0.58-49.25-0.04-98.53-0.25-147.79
		C1326.97,156.64,1327.09,101.32,1326.9399,46z"/>
	<path fill="none" stroke="#DCCFB3" stroke-width="0.3" d="M654.04,117.35c1.27-7.38,3.34-14.76,7.06-21.3
		c3.23-5.93,9.58-9.49,15.98-10.99c7.2-1.34,14.6-2.2,21.87-0.89c26.14,1.99,52.08,10.27,78.44,6.42
		c15.63-1.43,30.98-5.02,46.63-6.38c8.34-1.22,17.02-1.06,25.1,1.59c5.41,1.69,9.86,6.07,11.79,11.38
		c3.69,9.17,4.11,19.15,5.18,28.85"/>
	<path fill="none" stroke="#F0E3C3" stroke-width="0.3" d="M676.71,276.61l1.2,0.1c-2.17-0.78-4.37-1.49-6.5-2.33
		c-4.53-1.66-7.86-5.33-11-8.81c-9.7-12.18-13.4-27.72-15.68-42.81c-0.41-4.56-0.15-9.15-0.78-13.69c-0.89-6.71,0-13.51-0.99-20.21
		c0.8-0.77,1.61-1.53,2.44-2.29c2.08-8.03,2.8-16.36,3.26-24.62c1.63-14.88,2.11-29.94,5.38-44.6c1.51-3.22,2.24-6.71,3.61-9.98
		c4.57-8.53,13.86-13.53,23.34-14.31c10.02-0.65,20.16-0.14,30.04,1.74c17.6,2.21,35.1,6.32,52.94,5.45
		c11.29,0.36,22.34-2.04,33.42-3.77"/>
	<path fill="none" stroke="#F0E3C3" stroke-width="0.3" d="M797.39,96.48c14.18-1.25,28.3-5.23,42.61-3.39
		c6.02,0.67,12.23,2.83,16.11,7.72c4.39,4.72,4.71,11.43,6.93,17.2c1.62,4.43,0.99,9.24,1.83,13.82c1.02-1.47,1.38-3.18,1.3-4.92
		c-0.02-0.29-0.04-0.59-0.08-0.88c0.03,0.29,0.06,0.59,0.08,0.88c0.71,8.35-0.09,16.77,1,25.1c0.46,11.61-0.13,23.28,1.43,34.83
		c0.23,1.98,1.07,3.82,2.16,5.48"/>
	<path fill="none" stroke="#55331C" stroke-width="0.3" d="M694.85,139.99c14.98-8.38,34.32-9.57,49.61-1.33
		c1.86,1.09,4.24,2.76,3.99,5.2c-0.73,2.59-3.6,4.93-6.35,3.5c-4.43-2.35-9.11-4.55-14.14-5.11c-7.25-0.22-14.77-0.76-21.61,2.13
		c-3.45,0.72-6.34,4.1-10.03,3.08C693.46,145.91,693.16,142.53,694.85,139.99z"/>
	<path fill="none" stroke="#55331C" stroke-width="0.3" d="M770.1,138.43c14.99-7.34,33.87-7.43,48.32,1.29
		c2.45,1.43,2.63,5.42,0.25,7.03c-1.61,1.65-4.15,0.91-5.85-0.16c-9.2599-5.07-20.55-6.62-30.67-3.36c-0.57,0.13-1.7,0.39-2.27,0.52
		c-3.96,1.14-7.26,4.37-11.58,3.98c-0.99-1.42-2.79-2.65-2.67-4.56C766.13,140.92,768.08,139.35,770.1,138.43z"/>
	<path fill="none" stroke="#0295A5" stroke-width="0.3" d="M1017.93,319.93c9.6199-5.56,15.66-19.67,8.52-29.39
		c-3.7-5.68-10.5099-7.7-16.91-8.25c-0.09-44.34,0-88.68-0.04-133.02"/>
	<path fill="none" stroke="#FDFDFC" stroke-width="0.3" d="M718.55,157.75c6.37-0.39,12.69,2.91,16.71,7.76
		c2.44,4.33,5.23,9.29,3.76,14.42c-1.34,7.23-6.67,13.84-13.92,15.68c-9.14,2.87-19.98-2.76-22.97-11.86
		C697.21,172.5,706.73,158.93,718.55,157.75z"/>
	<path fill="none" stroke="#FDFEFB" stroke-width="0.3" d="M791.33,158.47c6.7-0.89,13.91,1.64,18.02,7.14
		c2.99,4.1,4.89,9.41,3.87,14.51c-1.05,6.84-5.99,13.12-12.56,15.42c-4.73,1.35-10.02,1.37-14.53-0.75
		c-9.04-3.43-13.92-14.94-10.2-23.85C778.37,164.49,784.23,159.01,791.33,158.47z"/>
	<path fill="none" stroke="#6E5237" stroke-width="0.3" d="M783.71,181.2c-2.87-6.23,2.01-13.93,8.6-14.85
		c0.23,2.58-0.78,5.85,1.67,7.64c1.75,2.05,4.6,1.28,6.96,1.34c1.17-0.83,2.36-1.64,3.5699-2.43c1.4901,4.59,0.44,10.18-3.65,13.08
		c-3.09,2.64-7.39,1.62-11.08,1.63C787.22,186.05,784.55,184.26,783.71,181.2z"/>
	<path fill="none" stroke="#6D5137" stroke-width="0.3" d="M708.69,177.07c0.66-5.11,4.21-9.95,9.5699-10.7
		c0.05,2.07,0.1201,4.14,0.2,6.21c2.91,4.05,8.66,3.53,12.02,0.32c1.67,4.58,0.39,10.1-3.58,13.07c-3.37,2.75-7.96,1.68-11.92,1.47
		C711.33,185.13,709.17,181.32,708.69,177.07z"/>
	<path fill="none" stroke="#F6B245" stroke-width="0.3" d="M836.72,276.26c6.33-3.67,13.1-6.95,17.93-12.64
		c11.32-12.06,14.13-29.17,14.99-45.07c8.62-0.49,17.25-0.13,25.87-0.21"/>
	<path fill="none" stroke="#EF5A34" stroke-width="0.3" d="M721.66,245.05c-4.78-3.5-9.47-7.7-11.65-13.35
		c-1.2599-2.9,0.06-6.59,2.84-8.06c5-0.94,10.13-0.87,15.19-0.47c12.31,0.07,24.63,0,36.95,0.03c11.59,0.14,23.17-0.61,34.74,0.23
		c3.32,1.11,5.64,4.98,4.63,8.44c-1.28,4.84-4.75,8.73-8.33,12.06l-0.54-0.38"/>
	<path fill="none" stroke="#D14F2D" stroke-width="0.3" d="M721.66,245.05c-0.13-0.53-0.39-1.6-0.52-2.14
		c6.72-4.1,13.82-8.07,21.8-8.91c8.6-0.83,17.31-2.07,25.94-0.79c9.47,1.43,19.0099,4.28,26.61,10.34
		c-3.11,3.53-7.77,5.02-12.03,6.64c-7.9,2.48-16.25,3.46-24.52,3.26C746.11,253.83,732.86,251.58,721.66,245.05z"/>
	<path fill="none" stroke="#403933" stroke-width="0.3" d="M859.24,434.75l-0.6-0.07c-0.41,7.95-0.39,16.74-5.71,23.23"/>
	<path fill="none" stroke="#403933" stroke-width="0.3" d="M865.98,352.36c-0.34,2.5-0.54,5.01-0.68,7.53"/>
	<path fill="none" stroke="#403933" stroke-width="0.3" d="M824.75,279.47c4.04-0.86,7.97-2.17,11.97-3.21
		c7.46-0.28,15.1,0.66,21.69,4.42c5.19,2.56,7.94,7.99,12.54,11.32"/>
	<path fill="none" stroke="#403933" stroke-width="0.3" d="M647.84,280.84c5.62-1.75,11.67-1.14,17.21-3.2
		c3.74-1.32,7.75-1.48,11.66-1.03c11.26,4.79,23.77,4.94,35.81,5.1"/>
	<path fill="none" stroke="#35302A" stroke-width="0.3" d="M736.35,357.34c-2.07-4.06-6.16-6.31-8.96-9.74
		c-7.78-11.54-11.28-25.22-17.47-37.57c-3.95-8.45-7.25-17.19-11.54-25.47c-1.53-0.38-3.0601-0.77-4.57-1.16
		c6.17-1.46,12.63,0.25,18.71-1.69c2.58-0.11,5.17-0.11,7.76-0.04"/>
	<path fill="none" stroke="#35302A" stroke-width="0.3" d="M696.41,558.16c-0.19-1.55-0.39-3.08-0.66-4.6
		c-2.54-0.33-6.42,1.12-7.84-1.81c-1.23-2.01-1.34-4.44-1.34-6.73c0.0601-23.8-0.0099-47.6,0.0601-71.4
		c-8.96-3.96-18.21-8.48-24.25-16.49"/>
	<path fill="none" stroke="#35302A" stroke-width="0.3" d="M779.46,553.43c-2.53-2.03-3.19-5.36-3.09-8.44
		c-0.02-20.5,0.04-41.01-0.03-61.51c-9.8,0.3-19.68,1.96-29.44,0.37c-2.44-0.16-4.88-0.21-7.32-0.26
		c0.02,20.13,0.02,40.25,0.01,60.38c-0.24,2.77,0.17,5.8101-1.22,8.33c-1.29,1.98-3.94,1.05-5.9,1.34"/>
	<path fill="none" stroke="#35302A" stroke-width="0.3" d="M802.75,281.74c7.39-0.01,14.73-0.99,22-2.27
		c1.31,0.25,2.64,0.55,3.97,0.84c-6.04,4.67-8.29,12.32-11.54,18.91c-8.52,17.16-16.2,34.77-25.96,51.3
		c-3.75,4.31-9.69,5.62-14.55,8.29c-4.18,2.37-8.96,3.25-13.32,5.17c-0.29,0.13-0.58,0.26-0.87,0.4c0.86,11.84,0.2,23.73,0.34,35.59
		c0.16,18.59-0.22,37.19,0.2,55.78c4.25,0.82,8.57,1.26,12.91,1.17c20.03-0.16,40.07,0.11,60.11-0.12
		c4.64,0.08,9.31,0.38,13.93-0.34c1.29-0.41,2.14,0.59,2.96,1.45c-6.12,7.15-14.62,11.76-23.33,14.99
		c-0.2,25.07,0.02,50.14-0.11,75.21c0.13,2.04-1.11,3.74-2.01,5.45c-1.69,0.01-3.39,0-5.05,0.01c-0.06,1.54-0.1,3.07-0.13,4.62"/>
	<path fill="none" stroke="#35302A" stroke-width="0.3" d="M649.71,350.65c0.26,0.05,0.79,0.16,1.06,0.21
		c0.27-1.64,0.56-3.27,0.86-4.9c0.15,2.02,0.3,4.04,0.46,6.07c9.9,2.01,19.9,3.64,29.95,4.72c11.65,0.64,23.33,0.31,35,0.32
		c2.28-0.02,4.51,0.53,6.71,1.12c0.3-0.18,0.89-0.52,1.19-0.69c0.24,0.75,0.48,1.51,0.72,2.27"/>
	<path fill="none" stroke="#35302A" stroke-width="0.3" d="M654.71,415.75c-0.54-6.28-0.38-12.64-1.27-18.93
		c-3.14-0.59-6.27-1.25-9.3701-2c-14.95-3.78-30.0699-9.7-41.12-20.83c-9.71-9.66-14.85-24.03-12.37-37.6
		c1.42-10.55,6.85-20.12,13.51-28.25c11.44-13.15,26.81-23.02,43.75-27.3c2.99,0.03,5.98,0.22,8.98,0.37
		c-2.59,2.24-5.18,4.5-7.99,6.46c-2.66,8.87-2.01,18.2-1.69,27.33c0.16,4.57,2.32,9.68-0.55,13.82"/>
	<path fill="none" stroke="#DFDFDF" stroke-width="0.3" d="M723.99,289.53c-1.22-2.64-2.45-5.26-3.71-7.86
		c6.13,0.23,12.26,0.09,18.39,0"/>
	<path fill="none" stroke="#DEDFDE" stroke-width="0.3" d="M782.8,282.26c0.18-0.19,0.54-0.58,0.73-0.77
		c6.39,0.43,12.81,0.53,19.22,0.25c-1.23,2.67-2.48,5.34-3.86,7.93"/>
	<path fill="none" stroke="#05828F" stroke-width="0.3" d="M745.43,288.49c-2.69-1.78-5.34-3.84-6.76-6.82
		c11.12-0.13,22.24-0.02,33.36-0.09c3.59-0.03,7.24-0.2,10.77,0.68c-2.26,2.53-4.74,4.9-7.7,6.59"/>
	<path fill="none" stroke="#0295A5" stroke-width="0.3" d="M775.0699,335.08c-4.93,9.52-9.67,19.15-14.8799,28.52
		c-5.09-9.29-9.26-19.05-14.04-28.5"/>
	<path fill="none" stroke="#0295A5" stroke-width="0.3" d="M751.73,290.63c4.73-3.88,11.27-2.09,16.86-2.33
		c0.46,0.55,1.39,1.64,1.85,2.19"/>
	<path fill="none" stroke="#FFFFFF" stroke-width="0.3" d="M1011.95,324.08c1.63-1.85,3.92-2.87,5.98-4.15
		c-6.67-11.18-13.96-21.97-20.4-33.29c3.17-2.72,7.32-3.45,11.31-4.05c0.92-18.15,0.14-36.36,0.39-54.54
		c-0.11-26.26,0.19-52.52-0.12-78.78h0.39c22.62,0,45.25-0.28,67.87,0.12c0.03,59.67-0.1801,119.34,0.1,179.01"/>
	<path fill="none" stroke="#FFFFFF" stroke-width="0.3" d="M917.59,305.1c-0.12-39.2-0.02-78.4-0.05-117.6
		c22.67-0.08,45.35-0.02,68.03-0.03c0.01,33.74,0.08,67.49-0.04,101.23"/>
	<path fill="none" stroke="#FFFFFF" stroke-width="0.3" d="M978.68,338.5c103.72-0.33,207.45,0.02,311.18-0.17
		c7.46,0,14.04-6.85,13.79-14.31c0.08-84.68-0.01-169.36,0.0399-254.04c-0.0699-4.55,0.52-9.5-2.08-13.53
		c-1.35-2.66-3.91-4.26-6.34-5.8c-2.38-0.66-4.79-1.3-7.25-1.25c-141.6901,0.08-283.39-0.05-425.08,0.07
		c13.03,19.59,16.84,43.52,18.6299,66.52c0.22,10.66,0.22,21.33,0,31.99c-1.2,13.46-2.18,27.11-6.34,40.07
		c-0.59,1.85-1.74,3.43-2.97,4.9l-1.5-0.63c-1.08,8.16-1.29,16.42-0.77,24.63c8.49,0.33,16.99-0.19,25.48,0.26
		c0.01,0.28,0.03,0.85,0.04,1.13c-0.19,28.18,0.1201,56.36-0.15,84.54"/>
	<path fill="none" stroke="#FFFFFF" stroke-width="0.3" d="M1169.51,113.95c-0.0901,71.51,0.0299,143.03-0.0701,214.54
		c-22.63,0.21-45.27,0.15-67.9,0.03c-0.1699-72.69-0.0399-145.39-0.0699-218.08c21.87,0.06,43.75-0.01,65.62,0.03
		C1169.1699,109.97,1169.74,112.42,1169.51,113.95z"/>
	<path fill="none" stroke="#FFFFFF" stroke-width="0.3" d="M1259.7,328.6c-22.45,0.01-44.89,0-67.33-0.01
		c0.1-80.72-0.05-161.44,0.0699-242.16c22.4-0.06,44.8101-0.02,67.2201-0.03C1259.7899,167.13,1259.71,247.87,1259.7,328.6z"/>
	<path fill="none" stroke="#FEFEFE" stroke-width="0.3" d="M723.99,289.53c7-1.79,14.3-0.52,21.44-1.04
		c2.09,0.74,4.19,1.43,6.3,2.14c0.92,0.34,1.84,0.68,2.76,1.04c-2.98,14.44-5.28,29.01-8.34,43.43
		C738.73,319.92,731.41,304.7,723.99,289.53z"/>
	<path fill="none" stroke="#FDFEFE" stroke-width="0.3" d="M770.44,290.49c1.54-0.56,3.12-1.05,4.66-1.64
		c7.91,0.18,16.06-1.39,23.79,0.82c-8.03,15.09-15.68,30.39-23.82,45.41c-1.78-14.74-3.95-29.45-5.65-44.2L770.44,290.49z"/>
	<path fill="none" stroke="#35302A" stroke-width="0.3" d="M1009.7,326.39c0.8-0.71,1.55-1.48,2.25-2.31
		c-6.5099-9.8-12.28-20.06-18.68-29.94c-0.55-0.86-1.1-1.73-1.6-2.6c-0.61-0.98-1.2-1.97-1.75-2.96c-0.17-0.3-0.51-0.9-0.68-1.2
		c-0.71,0.3-1.41,0.6-2.1,0.9c-0.4,0.1-1.21,0.31-1.61,0.42c-8.65,2.42-17.29,4.98-25.82,7.81c-13.86,3.63-27.77,7.55-42.12,8.59
		c-7.45,0.39-14.97-0.59-22.23-2.22c-8.72-2.08-17.13-5.62-24.41-10.88c-3.42,4.29-0.34,9.79-1.39,14.65
		c-2.43,11.3-1.11,23.01-3.33,34.35c-0.7,3.75-0.32,7.57-0.25,11.36c0.8-4.17,1.01-8.41,1.12-12.64c5.88,1.06,11.29,3.73,17.07,5.22
		c13.65,3.62,27.96,4.99,42.02,3.43c13.97-2.15,28.03-4.29,41.45-8.89c3.62-1.71,7.64,1.74,11.04-0.98
		c-1.69-0.11-3.36-0.23-5.03-0.37c3.27-1.2,6.6-2.2,9.96-3.13"/>
	<path fill="none" stroke="#FFFFFF" stroke-width="0.3" d="M1301.61,56.45c-1.35-2.6599-3.91-4.26-6.34-5.7999
		c-2.38-0.66-4.79-1.3-7.25-1.25c-141.6899,0.08-283.39-0.05-425.0801,0.0699c13.03,19.59,16.8401,43.52,18.6301,66.52
		c0.22,10.66,0.22,21.33,0,31.99c-1.2001,13.46-2.1801,27.11-6.3401,40.07c-0.59,1.85-1.74,3.43-2.97,4.9l-1.5-0.63
		c-1.0801,8.16-1.29,16.42-0.77,24.63c8.49,0.33,16.99-0.19,25.48,0.26c0.01,0.28,0.03,0.85,0.04,1.13
		c-0.1899,28.18,0.12,56.36-0.15,84.54c7.26,1.63,14.78,2.61,22.2301,2.22c-0.1201-39.2-0.02-78.4-0.05-117.6
		c22.6699-0.08,45.35-0.02,68.03-0.03c0.01,33.7401,0.08,67.4901-0.04,101.23c0.3999-0.11,1.21-0.32,1.61-0.42
		c0.6901-0.3,1.39-0.6,2.1-0.9c0.1699,0.3,0.51,0.9,0.6799,1.2c0.55,0.99,1.1401,1.98,1.75,2.96c0.5,0.87,1.05,1.7401,1.6001,2.6
		c6.3999,9.88,12.1699,20.14,18.6799,29.94c1.6301-1.85,3.92-2.87,5.98-4.15c-6.6699-11.18-13.96-21.97-20.3999-33.29
		c3.1699-2.72,7.3199-3.45,11.3101-4.05c0.9199-18.15,0.1399-36.36,0.3899-54.54c-0.11-26.26,0.1899-52.52-0.12-78.78h0.39
		c22.62,0,45.25-0.28,67.87,0.12c0.03,59.67-0.1801,119.34,0.1,179.01c-5.1001-0.5775-10.2168-0.1707-15.3337-0.1083
		c-1.7056,0.0208-3.4111,0.0033-5.1162-0.1017c-14.66-0.23-29.3301-0.05-44-0.07c-0.5437,0.0787-1.0298,0.0015-1.4688-0.1808
		c-0.2927-0.1215-0.5645-0.2897-0.8184-0.4894s-0.49-0.4308-0.7114-0.6782c-0.1107-0.1237-0.2178-0.2515-0.3215-0.3815
		c-0.84,0.1675-1.6711,0.3632-2.4952,0.5814c-1.6481,0.4366-3.2675,0.9637-4.8707,1.5378c-0.8015,0.287-1.599,0.5858-2.394,0.8908
		c-1.345,0.5125-2.7137,0.9575-4.0913,1.377c-0.689,0.2098-1.3799,0.4132-2.0713,0.6155c-2.0742,0.6069-4.152,1.2036-6.1829,1.9323
		c-1.3539,0.4858-2.687,1.0302-3.9845,1.6752c-3.36,0.93-6.6901,1.93-9.96,3.13c1.67,0.14,3.34,0.26,5.0299,0.37
		c103.7201-0.33,207.4501,0.02,311.1801-0.17c7.4601,0,14.04-6.85,13.79-14.31c0.08-84.68-0.01-169.36,0.0399-254.04
		C1303.62,65.4299,1304.21,60.48,1301.61,56.45z M995.5601,292.75c-0.9601,0-1.75-0.78-1.75-1.75s0.7899-1.75,1.75-1.75
		c0.97,0,1.75,0.78,1.75,1.75S996.53,292.75,995.5601,292.75z M1169.51,113.95c-0.0901,71.51,0.03,143.03-0.0701,214.54
		c-22.6299,0.21-45.27,0.15-67.8999,0.03c-0.17-72.69-0.04-145.39-0.0701-218.08c21.8701,0.06,43.75-0.01,65.6201,0.03
		C1169.1699,109.97,1169.74,112.42,1169.51,113.95z M1259.7,328.6c-22.45,0.01-44.8899,0-67.33-0.0099
		c0.1-80.72-0.0499-161.44,0.0699-242.16c22.4001-0.06,44.8101-0.02,67.22-0.03C1259.79,167.13,1259.71,247.87,1259.7,328.6z"/>
	<path fill="none" stroke="#FFFFFF" stroke-width="0.3" d="M646.59,328.82l0.83-0.69c1.29,3.5,1.03,7.25,1.14,10.91
		c0.05,3.89,0.9,7.72,1.15,11.61c-5.33-1.03-10.29-3.57-14.65-6.73c-1.12-0.73-0.72-2.19-0.29-3.19
		C637.61,335.8,642.31,332.4,646.59,328.82z"/>
	<path fill="none" stroke="#9B9890" stroke-width="0.3" d="M731.75,397.85c-0.22-0.36-0.66-1.07-0.88-1.42
		c-1.88-12.2-2.88-24.53-5.21-36.66c1.9-4.1,7.16-2.2,10.69-2.43c2.68,0.13,5.3,0.82,7.8,1.81"/>
	<path fill="none" stroke="#FEFDFD" stroke-width="0.3" d="M731.41,361.55c0.46,0.34,1.38,1.02,1.85,1.36"/>
	<path fill="none" stroke="#FEFDFD" stroke-width="0.3" d="M737.31,396.61c-1.91,0.03-3.81,0.06-5.71,0.1
		c-1.07-12.74-3.56-25.31-4.81-38.02c2.22-0.26,4.47-0.43,6.72-0.27c-0.56,0.85-1.12,1.69-1.68,2.54"/>
	<path fill="none" stroke="#F0E3C3" stroke-width="0.3" d="M737.28,396.87l0.03-0.26c0.29-11.35-3.04-22.43-4.05-33.7l-0.0099-1.72
		l0.2599-2.77c3.54,0.25,7.09,0.46,10.64,0.73c4.96,1.66,9.33,5.12,11.92,9.69c2.61,5.11,2.21,11.46-0.34,16.52"/>
	<path fill="none" stroke="#E5E5E5" stroke-width="0.3" d="M859.24,434.75c1.39-25,4.24-49.89,6.06-74.86
		c154.63-0.08,309.2499,0.1,463.8799-0.09c-0.11,19.73,0.03,39.46-0.08,59.19c0.26,5.73-2.89,11.16-7.5601,14.32
		c-2.59,1.51-5.7,1.58-8.6,1.78c-67.38-0.29-134.7899-0.04-202.1699-0.07c0.09,1.65,0.1899,3.3,0.37,4.95
		c3.64,24.36,7.9299,48.65,11.08,73.09c4.87,0.94,9.83,0.54,14.76,0.56c7.84-0.03,15.6801,0.08,23.53-0.08
		c1.6699,3.97,0.77,8.3,0.83,12.45c-0.26,5.58,0.77,11.2-0.27,16.74c-78.36,0.01-156.71,0.09-235.06-0.04
		c-0.42-6.9,0-13.82-0.23-20.72c0.06-2.47-0.3-5.1,0.77-7.41c1.62-1.01,3.6-0.91,5.45-0.98c10.88,0.12,21.7599,0.04,32.64,0.12
		c2.65-19.34,5.02-38.72,7.95-58.02c0.61-6.93,2.35-13.74,2.45-20.72c-25-0.01-50.02,0.21-75.03-0.07
		c-11.64,0.47-23.3-0.44-34.93,0.37C863.11,435.4,861.16,435.03,859.24,434.75"/>
	<path fill="none" stroke="#D8D8D8" stroke-width="0.3" d="M1040.34,378.49c5.41-1.42,11,0.54,15.37,3.72
		c3.09,4.05,7.34,8.19,6.51,13.78c0.73,6.21-2.78,12.03-7.27,16c-6.16,3.5-14.38,4.61-20.65,0.75c-4.46-2.14-7.33-6.53-8.87-11.08
		c-1.14-5.77-0.0699-11.97,3.4301-16.76C1031.0599,380.68,1036.15,379.68,1040.34,378.49z"/>
	<path fill="none" stroke="#403933" stroke-width="0.3" d="M737.28,396.87c7.36-1.19,14.51-4.99,18.45-11.51
		c1.55,2.98,2.4,6.26,2.25,9.63c-0.11,20.27,0.14,40.55-0.06,60.83c-18.94,0.72-37.91,0.07-56.86,0.33
		c-10.03,0.23-20.08-0.54-30.08,0.36c-2.68,0.26-5.28-0.54-7.87-1.05c-0.18,0.42-0.55,1.25-0.73,1.67
		c-6.05-8.8-5.32-20.1-6.03-30.28l-0.68-0.75c-0.03-3.47-0.16-6.96-0.96-10.35c-0.02-6.25,1.03-12.41,1.66-18.6
		c8.22,0.74,16.27,3.17,24.59,2.8c17.29,0.24,34.58,0.13,51.86-0.36c-0.27-0.44-0.8-1.31-1.0699-1.74
		C733.59,397.53,735.44,397.24,737.28,396.87z"/>
	<path fill="none" stroke="#231F20" stroke-width="0.3" d="M696.41,558.16c0.22-1.56,0.45-3.11,0.71-4.64
		c11.76,0.84,23.57,0.36,35.35,0.12c-0.07,6.78-0.04,13.57-0.03,20.35c0.05,2.72-0.3701,5.45-1.32,8.01h-82.4
		c-0.28-4.84-0.82-10.11,1.76-14.47c2.22-1.44,4.94-1.79,7.46-2.5C670.7,562.43,683.45,559.47,696.41,558.16z"/>
	<path fill="none" stroke="#231F20" stroke-width="0.3" d="M779.46,553.43c5.85-0.39,11.66,0.67,17.52,0.53
		c7.63-0.18,15.29,0.22,22.91-0.47c0.76,1.58,1.53,3.16,2.41,4.7c2.21,0.26,4.43,0.38,6.66,0.62c12.79,2.65,25.75,4.56,38.37,8.02
		c2.95,4.5,2.22,10.07,1.99,15.17h-82.25c-2.7599-9.19-0.62-18.97-1.4399-28.41C783.56,553.57,781.5099,553.58,779.46,553.43z"/>
	<circle fill="#B2B4B3" cx="729.9791" cy="362.23" r="1.5929"/>
</g>
</svg>
